<svg width="900" height="500" viewBox="0 0 900 500" fill="none" xmlns="http://www.w3.org/2000/svg">
  <rect width="900" height="500" fill="none"/>
  <path d="M78 334C90 283 174 237 262 225C304 219 368 214 428 214H548C648 214 736 246 804 288C838 309 848 330 848 348C848 378 820 402 784 409L238 426C156 426 94 390 78 353C72 338 74 347 78 334Z" fill="#f3f4f6"/>
  <path d="M140 336C196 308 260 292 328 288L492 279C604 273 714 286 808 318C818 322 828 328 828 342C828 358 816 372 798 374L236 404C190 407 152 392 132 364C124 354 126 342 140 336Z" fill="#e5e7eb"/>
  <path d="M92 322C120 285 174 250 234 238C264 231 308 226 350 226H522C596 226 684 246 754 284C790 304 804 330 802 348C800 368 784 388 760 394L214 422C170 424 128 402 108 368C92 344 82 320 92 322Z" fill="#cbd5e1" opacity="0.65"/>
  <path d="M112 348C122 327 150 308 182 302L286 284C306 280 330 278 350 278H532C592 278 662 294 718 320C742 332 754 352 748 368C742 384 722 396 698 398L214 424C174 426 134 402 116 368C110 357 108 343 112 348Z" fill="#e2e8f0" opacity="0.72"/>
</svg>

