<svg width="900" height="500" viewBox="0 0 900 500" fill="none" xmlns="http://www.w3.org/2000/svg">
  <rect width="900" height="500" fill="none"/>
  <path d="M90 356C90 330 120 310 152 310H728C784 310 820 334 820 364C820 392 792 414 756 418L216 434C150 434 90 404 90 366V356Z" fill="#0f172a"/>
  <path d="M120 362C120 340 148 324 176 324H714C764 324 794 342 794 364C794 390 764 406 734 408L214 430C164 430 120 404 120 370V362Z" fill="#111827" opacity="0.85"/>
  <path d="M150 362C150 348 174 338 198 338H700C742 338 764 350 764 364C764 380 742 392 722 394L214 424C180 424 150 402 150 372V362Z" fill="#0b1224"/>
  <path d="M176 374C176 364 192 356 210 356H688C716 356 730 366 730 374C730 388 710 398 694 400L214 420C198 420 176 406 176 382V374Z" fill="#fff" opacity="0.08"/>
</svg>

