<svg width="900" height="500" viewBox="0 0 900 500" fill="none" xmlns="http://www.w3.org/2000/svg">
  <rect width="900" height="500" fill="none"/>
  <path d="M148 328C156 296 194 264 242 252L392 214C422 206 456 202 488 202H580C654 202 732 234 778 272C806 295 818 316 814 334C808 360 780 378 748 380L270 408C216 411 168 380 152 340C146 326 146 332 148 328Z" fill="#0f172a" opacity="0.78"/>
  <path d="M192 332C206 304 244 278 286 270L430 242C452 238 476 236 498 236H594C654 236 710 258 748 284C774 302 784 322 780 338C776 354 760 370 736 372L268 402C230 404 198 384 188 356C184 344 186 338 192 332Z" fill="#111827"/>
  <path d="M234 320C252 294 286 272 324 266L460 244C482 240 508 238 532 238H620C666 238 712 256 742 278C760 292 768 310 764 326C760 342 744 356 726 358L280 392C252 394 224 376 216 350C212 338 220 330 234 320Z" fill="#0b1224"/>
</svg>

